<svg width="22" height="23" viewBox="0 0 22 23" fill="none" xmlns="http://www.w3.org/2000/svg">
<path d="M18.4992 12.4395V9.75C18.4985 8.57619 18.2202 7.41919 17.687 6.3735L21.4992 2.5605L20.4387 1.5L0.499207 21.4395L1.55971 22.5L6.05971 18H7.24921V18.75C7.24921 19.7446 7.64429 20.6984 8.34756 21.4016C9.05082 22.1049 10.0046 22.5 10.9992 22.5C11.9938 22.5 12.9476 22.1049 13.6509 21.4016C14.3541 20.6984 14.7492 19.7446 14.7492 18.75V18H19.9992C20.1981 18 20.3889 17.921 20.5295 17.7803C20.6702 17.6397 20.7492 17.4489 20.7492 17.25V15C20.7492 14.8011 20.6701 14.6104 20.5295 14.4697L18.4992 12.4395ZM13.2492 18.75C13.2492 19.3467 13.0122 19.919 12.5902 20.341C12.1682 20.7629 11.5959 21 10.9992 21C10.4025 21 9.83017 20.7629 9.40822 20.341C8.98626 19.919 8.74921 19.3467 8.74921 18.75V18H13.2492V18.75ZM19.2492 16.5H7.55971L16.5582 7.5015C16.8492 8.21543 16.999 8.97904 16.9992 9.75V12.75C16.9992 12.9489 17.0783 13.1396 17.219 13.2803L19.2492 15.3105V16.5ZM4.77946 13.2803C4.92012 13.1396 4.99916 12.9489 4.99921 12.75V9.75C5.00119 8.15931 5.63397 6.63434 6.75876 5.50955C7.88355 4.38476 9.40852 3.75198 10.9992 3.75C12.3608 3.75063 13.6809 4.21873 14.7387 5.076L15.8082 4.0065C14.6596 3.03721 13.2446 2.43798 11.7492 2.2875V0.75H10.2492V2.2875C8.40014 2.4757 6.68653 3.34284 5.43973 4.72124C4.19294 6.09964 3.50153 7.89138 3.49921 9.75V12.4395L1.24921 14.6895L2.30971 15.75L4.77946 13.2803Z" fill="#3F4047"/>
</svg>
