<svg width="25" height="25" viewBox="0 0 25 25" fill="none" xmlns="http://www.w3.org/2000/svg">
<path d="M5.33334 6.33331H4.00001C3.29277 6.33331 2.61449 6.61426 2.11439 7.11436C1.61429 7.61446 1.33334 8.29274 1.33334 8.99998V21C1.33334 21.7072 1.61429 22.3855 2.11439 22.8856C2.61449 23.3857 3.29277 23.6666 4.00001 23.6666H16C16.7073 23.6666 17.3855 23.3857 17.8856 22.8856C18.3857 22.3855 18.6667 21.7072 18.6667 21V19.6666" stroke="#3F4047" stroke-linecap="round" stroke-linejoin="round"/>
<path d="M17.3333 3.66666L21.3333 7.66666M23.18 5.77999C23.7051 5.25486 24.0001 4.54263 24.0001 3.79999C24.0001 3.05735 23.7051 2.34512 23.18 1.81999C22.6549 1.29486 21.9426 0.999847 21.2 0.999847C20.4574 0.999847 19.7451 1.29486 19.22 1.81999L8 13V17H12L23.18 5.77999Z" stroke="#3F4047" stroke-linecap="round" stroke-linejoin="round"/>
</svg>
