<svg width="14" height="14" viewBox="0 0 14 14" fill="none" xmlns="http://www.w3.org/2000/svg">
<path d="M8.2 0.599998C9.10674 0.599926 9.99774 0.836956 10.7846 1.28757C11.5714 1.73818 12.2268 2.38671 12.6856 3.16881C13.1444 3.9509 13.3907 4.83938 13.4001 5.74607C13.4095 6.65276 13.1817 7.54615 12.7392 8.3376L13.376 10.0032C13.4289 10.1417 13.4424 10.2921 13.4148 10.4377C13.3872 10.5834 13.3197 10.7185 13.2198 10.828C13.1199 10.9375 12.9916 11.0171 12.8491 11.058C12.7066 11.0988 12.5555 11.0992 12.4128 11.0592L10.4232 10.5016C9.71844 10.8346 8.94784 11.0049 8.16838 10.9999C7.38893 10.9949 6.62057 10.8147 5.92014 10.4727C5.21971 10.1307 4.60512 9.63562 4.12184 9.02405C3.63857 8.41249 3.29895 7.7001 3.12813 6.93958C2.95731 6.17906 2.95965 5.38986 3.13498 4.63037C3.3103 3.87087 3.65413 3.16051 4.14102 2.55182C4.62792 1.94312 5.24543 1.45168 5.94787 1.11383C6.65032 0.775984 7.42053 0.600377 8.2 0.599998ZM12.5992 5.8C12.5988 4.84114 12.2853 3.90865 11.7062 3.14439C11.1271 2.38014 10.3143 1.82597 9.39127 1.56619C8.46827 1.30641 7.48568 1.35525 6.593 1.70528C5.70031 2.05531 4.9464 2.68736 4.44598 3.50527C3.94555 4.32318 3.726 5.28217 3.82073 6.23634C3.91546 7.1905 4.31929 8.08761 4.97077 8.79115C5.62225 9.4947 6.48573 9.96617 7.42981 10.1338C8.37389 10.3015 9.3469 10.1562 10.2008 9.72L10.34 9.648L12.628 10.2888L11.8528 8.26L11.9552 8.092C12.3778 7.40228 12.6002 6.60891 12.5992 5.8ZM5.8296 13.4C6.5781 13.4006 7.31786 13.2393 7.9982 12.9272C8.67854 12.6151 9.28335 12.1597 9.7712 11.592C9.31169 11.7161 8.83903 11.7852 8.3632 11.7976C7.62179 12.3197 6.73718 12.5999 5.8304 12.6C5.1088 12.6 4.4288 12.4264 3.8288 12.12L3.6896 12.048L1.4016 12.6888L2.1768 10.66L2.0744 10.492C1.6664 9.8248 1.4304 9.0408 1.4304 8.2C1.42896 7.31161 1.69795 6.44382 2.2016 5.712C2.20811 5.23607 2.27122 4.76261 2.3896 4.3016C1.83593 4.78886 1.3926 5.38865 1.08923 6.06092C0.785863 6.73319 0.629437 7.46245 0.630404 8.2C0.630404 9.1208 0.870403 9.9864 1.2904 10.7376L0.654404 12.4032C0.601467 12.5417 0.588037 12.6921 0.615617 12.8377C0.643195 12.9834 0.710697 13.1185 0.81059 13.228C0.910482 13.3375 1.03884 13.4171 1.18134 13.458C1.32384 13.4988 1.47487 13.4992 1.6176 13.4592L3.6072 12.9016C4.2816 13.2216 5.036 13.4 5.8312 13.4" fill="white"/>
</svg>
