<svg width="15" height="17" viewBox="0 0 15 17" fill="none" xmlns="http://www.w3.org/2000/svg">
<path d="M1 3.83333V1.96667C1 1.8429 1.04917 1.7242 1.13668 1.63668C1.2242 1.54917 1.3429 1.5 1.46667 1.5H12.9778C13.1015 1.5 13.2202 1.54917 13.3078 1.63668C13.3953 1.7242 13.4444 1.8429 13.4444 1.96667V3.83333M1 13.1667V15.0333C1 15.1571 1.04917 15.2758 1.13668 15.3633C1.2242 15.4508 1.3429 15.5 1.46667 15.5H12.9778C13.1015 15.5 13.2202 15.4508 13.3078 15.3633C13.3953 15.2758 13.4444 15.1571 13.4444 15.0333V13.1667" stroke="#3F4047" stroke-width="1.5" stroke-linecap="round"/>
<path d="M9.94807 10.837V6.17029H12.2814M9.94807 8.50362H11.5036M7.22584 10.837V6.17029M4.50362 6.17029H2.17029V10.837H4.50362V8.97029" stroke="#3F4047" stroke-width="1.5" stroke-linecap="round" stroke-linejoin="round"/>
</svg>
