<svg width="17" height="15" viewBox="0 0 17 15" fill="none" xmlns="http://www.w3.org/2000/svg">
<path d="M4.4964 0.671351C4.55072 0.725529 4.59381 0.789891 4.62321 0.86075C4.65262 0.931609 4.66775 1.00757 4.66775 1.08429C4.66775 1.16101 4.65262 1.23697 4.62321 1.30783C4.59381 1.37869 4.55072 1.44305 4.4964 1.49723L2.16341 3.83021C2.10924 3.88453 2.04487 3.92762 1.97402 3.95703C1.90316 3.98643 1.82719 4.00156 1.75048 4.00156C1.67376 4.00156 1.5978 3.98643 1.52694 3.95703C1.45608 3.92762 1.39172 3.88453 1.33754 3.83021L0.171045 2.66372C0.116817 2.60949 0.0738009 2.54511 0.044453 2.47426C0.0151051 2.40341 8.08058e-10 2.32747 0 2.25078C-8.08058e-10 2.17409 0.0151051 2.09815 0.044453 2.0273C0.0738009 1.95645 0.116817 1.89207 0.171045 1.83784C0.225273 1.78362 0.28965 1.7406 0.360503 1.71125C0.431355 1.6819 0.507293 1.6668 0.583983 1.6668C0.660673 1.6668 0.736612 1.6819 0.807464 1.71125C0.878316 1.7406 0.942694 1.78362 0.996922 1.83784L1.75048 2.59256L3.67052 0.671351C3.7247 0.617035 3.78906 0.573941 3.85992 0.544538C3.93078 0.515135 4.00674 0.5 4.08346 0.5C4.16018 0.5 4.23614 0.515135 4.307 0.544538C4.37786 0.573941 4.44222 0.617035 4.4964 0.671351ZM15.7484 2.83403H6.41645C6.26176 2.83403 6.11341 2.77258 6.00403 2.6632C5.89465 2.55382 5.8332 2.40547 5.8332 2.25078C5.8332 2.0961 5.89465 1.94774 6.00403 1.83836C6.11341 1.72898 6.26176 1.66754 6.41645 1.66754H15.7484C15.9031 1.66754 16.0514 1.72898 16.1608 1.83836C16.2702 1.94774 16.3316 2.0961 16.3316 2.25078C16.3316 2.40547 16.2702 2.55382 16.1608 2.6632C16.0514 2.77258 15.9031 2.83403 15.7484 2.83403ZM5.8332 7.5C5.8332 7.34531 5.89465 7.19696 6.00403 7.08758C6.11341 6.9782 6.26176 6.91675 6.41645 6.91675H15.7484C15.9031 6.91675 16.0514 6.9782 16.1608 7.08758C16.2702 7.19696 16.3316 7.34531 16.3316 7.5C16.3316 7.65469 16.2702 7.80304 16.1608 7.91242C16.0514 8.0218 15.9031 8.08325 15.7484 8.08325H6.41645C6.26176 8.08325 6.11341 8.0218 6.00403 7.91242C5.89465 7.80304 5.8332 7.65469 5.8332 7.5ZM4.4964 11.1698C4.55072 11.224 4.59381 11.2883 4.62321 11.3592C4.65262 11.43 4.66775 11.506 4.66775 11.5827C4.66775 11.6594 4.65262 11.7354 4.62321 11.8063C4.59381 11.8771 4.55072 11.9415 4.4964 11.9957L2.16341 14.3286C2.10924 14.383 2.04487 14.4261 1.97402 14.4555C1.90316 14.4849 1.82719 14.5 1.75048 14.5C1.67376 14.5 1.5978 14.4849 1.52694 14.4555C1.45608 14.4261 1.39172 14.383 1.33754 14.3286L0.171045 13.1622C0.116817 13.1079 0.0738009 13.0436 0.044453 12.9727C0.0151051 12.9018 0 12.8259 0 12.7492C0 12.6725 0.0151051 12.5966 0.044453 12.5257C0.0738009 12.4549 0.116817 12.3905 0.171045 12.3363C0.280563 12.2268 0.429101 12.1652 0.583983 12.1652C0.660673 12.1652 0.736612 12.1803 0.807464 12.2097C0.878316 12.239 0.942694 12.2821 0.996922 12.3363L1.75048 13.091L3.67052 11.1698C3.7247 11.1155 3.78906 11.0724 3.85992 11.043C3.93078 11.0136 4.00674 10.9984 4.08346 10.9984C4.16018 10.9984 4.23614 11.0136 4.307 11.043C4.37786 11.0724 4.44222 11.1155 4.4964 11.1698ZM15.7484 13.3325H6.41645C6.26176 13.3325 6.11341 13.271 6.00403 13.1616C5.89465 13.0523 5.8332 12.9039 5.8332 12.7492C5.8332 12.5945 5.89465 12.4462 6.00403 12.3368C6.11341 12.2274 6.26176 12.166 6.41645 12.166H15.7484C15.9031 12.166 16.0514 12.2274 16.1608 12.3368C16.2702 12.4462 16.3316 12.5945 16.3316 12.7492C16.3316 12.9039 16.2702 13.0523 16.1608 13.1616C16.0514 13.271 15.9031 13.3325 15.7484 13.3325Z" fill="#3F4047"/>
</svg>
