<svg width="20" height="15" viewBox="0 0 20 15" fill="none" xmlns="http://www.w3.org/2000/svg">
<path d="M3.39999 0.299988C2.60434 0.299988 1.84128 0.616058 1.27867 1.17867C0.716064 1.74128 0.399994 2.50434 0.399994 3.29999V11.7C0.399994 12.4956 0.716064 13.2587 1.27867 13.8213C1.84128 14.3839 2.60434 14.7 3.39999 14.7H11.8C12.5956 14.7 13.3587 14.3839 13.9213 13.8213C14.4839 13.2587 14.8 12.4956 14.8 11.7V10.5L17.68 12.66C17.8583 12.7937 18.0703 12.8751 18.2922 12.8951C18.5142 12.9152 18.7373 12.873 18.9367 12.7733C19.136 12.6736 19.3036 12.5204 19.4208 12.3309C19.5379 12.1413 19.6 11.9228 19.6 11.7V3.29999C19.6 3.07713 19.5379 2.85868 19.4208 2.66911C19.3036 2.47954 19.136 2.32634 18.9367 2.22667C18.7373 2.12701 18.5142 2.08482 18.2922 2.10484C18.0703 2.12485 17.8583 2.20627 17.68 2.33999L14.8 4.49999V3.29999C14.8 2.50434 14.4839 1.74128 13.9213 1.17867C13.3587 0.616058 12.5956 0.299988 11.8 0.299988H3.39999ZM14.8 5.99999L18.4 3.29999V11.7L14.8 8.99999V5.99999ZM13.6 3.29999V11.7C13.6 12.1774 13.4104 12.6352 13.0728 12.9728C12.7352 13.3103 12.2774 13.5 11.8 13.5H3.39999C2.9226 13.5 2.46477 13.3103 2.1272 12.9728C1.78964 12.6352 1.59999 12.1774 1.59999 11.7V3.29999C1.59999 2.8226 1.78964 2.36476 2.1272 2.0272C2.46477 1.68963 2.9226 1.49999 3.39999 1.49999H11.8C12.2774 1.49999 12.7352 1.68963 13.0728 2.0272C13.4104 2.36476 13.6 2.8226 13.6 3.29999Z" fill="#3F4047"/>
</svg>
