<svg width="20" height="17" viewBox="0 0 20 17" fill="none" xmlns="http://www.w3.org/2000/svg">
<path d="M18.25 0.4375H1.75C1.4019 0.4375 1.06806 0.575781 0.821922 0.821922C0.575781 1.06806 0.4375 1.4019 0.4375 1.75V15.25C0.4375 15.5981 0.575781 15.9319 0.821922 16.1781C1.06806 16.4242 1.4019 16.5625 1.75 16.5625H18.25C18.5981 16.5625 18.9319 16.4242 19.1781 16.1781C19.4242 15.9319 19.5625 15.5981 19.5625 15.25V1.75C19.5625 1.4019 19.4242 1.06806 19.1781 0.821922C18.9319 0.575781 18.5981 0.4375 18.25 0.4375ZM1.75 1.5625H18.25C18.2997 1.5625 18.3474 1.58225 18.3826 1.61742C18.4177 1.65258 18.4375 1.70027 18.4375 1.75V11.8347L15.6747 9.07188C15.5528 8.94998 15.4081 8.85329 15.2489 8.78733C15.0896 8.72136 14.9189 8.68741 14.7466 8.68741C14.5742 8.68741 14.4035 8.72136 14.2443 8.78733C14.085 8.85329 13.9403 8.94998 13.8184 9.07188L11.8103 11.08L7.55313 6.82187C7.43125 6.69998 7.28655 6.60329 7.1273 6.53733C6.96805 6.47136 6.79737 6.43741 6.625 6.43741C6.45263 6.43741 6.28195 6.47136 6.1227 6.53733C5.96345 6.60329 5.81875 6.69998 5.69687 6.82187L1.5625 10.9562V1.75C1.5625 1.70027 1.58225 1.65258 1.61742 1.61742C1.65258 1.58225 1.70027 1.5625 1.75 1.5625ZM1.5625 15.25V12.5472L6.49188 7.61781C6.50931 7.60024 6.53004 7.58629 6.55289 7.57677C6.57574 7.56725 6.60025 7.56235 6.625 7.56235C6.64975 7.56235 6.67426 7.56725 6.69711 7.57677C6.71996 7.58629 6.74069 7.60024 6.75812 7.61781L14.5778 15.4375H1.75C1.70027 15.4375 1.65258 15.4177 1.61742 15.3826C1.58225 15.3474 1.5625 15.2997 1.5625 15.25ZM18.25 15.4375H16.1688L12.6063 11.875L14.6134 9.86687C14.6309 9.84944 14.6515 9.83561 14.6743 9.82618C14.6971 9.81674 14.7215 9.81188 14.7461 9.81188C14.7707 9.81188 14.7951 9.81674 14.8179 9.82618C14.8407 9.83561 14.8613 9.84944 14.8787 9.86687L18.4412 13.4294V15.25C18.4413 15.2749 18.4363 15.2996 18.4266 15.3226C18.417 15.3456 18.4028 15.3665 18.385 15.3839C18.3672 15.4014 18.3461 15.4151 18.3229 15.4243C18.2997 15.4335 18.2749 15.438 18.25 15.4375ZM11.6875 5.875C11.6875 5.68958 11.7425 5.50832 11.8455 5.35415C11.9485 5.19998 12.0949 5.07982 12.2662 5.00886C12.4375 4.93791 12.626 4.91934 12.8079 4.95551C12.9898 4.99169 13.1568 5.08098 13.2879 5.21209C13.419 5.3432 13.5083 5.51025 13.5445 5.6921C13.5807 5.87396 13.5621 6.06246 13.4911 6.23377C13.4202 6.40507 13.3 6.55149 13.1458 6.6545C12.9917 6.75752 12.8104 6.8125 12.625 6.8125C12.3764 6.8125 12.1379 6.71373 11.9621 6.53791C11.7863 6.3621 11.6875 6.12364 11.6875 5.875Z" fill="#3F4047"/>
</svg>
