<svg width="28" height="28" viewBox="0 0 28 28" fill="none" xmlns="http://www.w3.org/2000/svg">
<path d="M12.8337 2.33374H10.5004C4.66705 2.33374 2.33371 4.66708 2.33371 10.5004V17.5004C2.33371 23.3338 4.66705 25.6671 10.5004 25.6671H17.5004C23.3338 25.6671 25.6671 23.3338 25.6671 17.5004V15.1671" stroke="white" stroke-width="1.75" stroke-linecap="round" stroke-linejoin="round"/>
<path d="M18.7135 3.5229L9.5201 12.7162C9.1701 13.0662 8.8201 13.7546 8.7501 14.2563L8.24844 17.7679C8.06177 19.0396 8.9601 19.9263 10.2318 19.7513L13.7434 19.2496C14.2334 19.1796 14.9218 18.8296 15.2835 18.4796L24.4768 9.28624C26.0635 7.69957 26.8101 5.85624 24.4768 3.5229C22.1435 1.18956 20.3001 1.93623 18.7135 3.5229Z" stroke="white" stroke-width="1.75" stroke-miterlimit="10" stroke-linecap="round" stroke-linejoin="round"/>
<path d="M17.3955 4.84198C18.1771 7.63032 20.3588 9.81199 23.1588 10.6053" stroke="white" stroke-width="1.75" stroke-miterlimit="10" stroke-linecap="round" stroke-linejoin="round"/>
</svg>
